<svg width="285" height="97" viewBox="0 0 285 97" fill="none" xmlns="http://www.w3.org/2000/svg">
<path d="M210.024 65.0835C207.873 67.4384 205.249 69.3206 202.32 70.6088C199.39 71.8969 196.221 72.5625 193.016 72.5625C189.812 72.5625 186.643 71.8969 183.713 70.6088C180.784 69.3206 178.16 67.4384 176.009 65.0835C173.861 67.4449 171.236 69.3328 168.304 70.625C165.372 71.9172 162.2 72.5849 158.991 72.5849C155.783 72.5849 152.61 71.9172 149.678 70.625C146.747 69.3328 144.122 67.4449 141.973 65.0835C139.823 67.4384 137.198 69.3206 134.269 70.6088C131.34 71.8969 128.171 72.5625 124.966 72.5625C121.761 72.5625 118.592 71.8969 115.663 70.6088C112.733 69.3206 110.109 67.4384 107.959 65.0835C105.808 67.4384 103.184 69.3206 100.255 70.6088C97.3254 71.8969 94.1562 72.5625 90.9514 72.5625C87.7466 72.5625 84.5774 71.8969 81.6481 70.6088C78.7188 69.3206 76.0944 67.4384 73.9442 65.0835C71.7944 67.4279 69.1738 69.3011 66.2506 70.5829C63.3274 71.8648 60.166 72.5269 56.9694 72.5269C53.7728 72.5269 50.6115 71.8648 47.6883 70.5829C44.7651 69.3011 42.1445 67.4279 39.9947 65.0835L39.1059 65.9428L18.8143 86.0731C18.5247 86.3933 18.1584 86.636 17.7492 86.7787C17.3399 86.9214 16.901 86.9595 16.4729 86.8895C15.1665 86.7051 13.8951 86.3286 12.7008 85.7723C10.9811 84.9637 9.36539 83.9539 7.88801 82.7646C6.99917 82.0556 6.97749 81.5615 7.88801 80.7666C15.2444 73.4048 22.6515 66.0288 30.1091 58.6383C31.2985 57.5722 32.2892 56.3068 33.0357 54.9002C33.7266 53.4451 34.0917 51.8591 34.106 50.2511C34.1203 48.643 33.7834 47.0509 33.1184 45.584C32.4535 44.1171 31.4762 42.8101 30.2537 41.7527C29.0311 40.6952 27.5922 39.9123 26.0357 39.4577C24.4792 39.0031 22.8418 38.8875 21.236 39.1189C19.6301 39.3503 18.0938 39.9232 16.7324 40.7983C15.3709 41.6734 14.2166 42.8299 13.3486 44.1886C12.4806 45.5473 11.9194 47.076 11.7035 48.6699C11.4773 50.2784 11.6148 51.9166 12.1059 53.466C12.5971 55.0154 13.4297 56.4372 14.5435 57.6286C15.3673 58.5309 16.3212 59.3258 17.21 60.1852L21.5458 64.4819C22.2396 65.1694 22.2396 65.7495 21.5458 66.3295C19.6223 67.9424 17.4185 69.1946 15.0421 70.0247C14.2326 70.2632 13.4066 70.4427 12.5707 70.5618C12.2814 70.6251 11.981 70.6191 11.6945 70.5444C11.4079 70.4697 11.1435 70.3284 10.9231 70.1321C8.95028 68.1342 6.84741 66.2436 5.06973 64.0737C1.3718 59.676 -0.420658 54.0072 0.0835428 48.3046C0.514293 42.8287 2.94626 37.6967 6.92327 33.8712C10.9003 30.0457 16.1491 27.7895 21.6851 27.5259C27.2212 27.2622 32.6641 29.0093 36.9929 32.4393C41.3218 35.8692 44.2391 40.7465 45.1977 46.1563C45.3928 47.3164 45.4579 48.498 45.5446 49.6581C45.616 51.7491 46.1802 53.7945 47.1922 55.6306C48.3342 57.6061 50.0592 59.1879 52.1351 60.1632C54.2111 61.1385 56.5386 61.4606 58.8047 61.0863C61.0709 60.7121 63.1672 59.6592 64.8117 58.0694C66.4563 56.4796 67.5703 54.429 68.0041 52.1932C68.109 51.6263 68.1599 51.0509 68.1558 50.4745C68.1558 47.5312 68.1558 44.5665 68.1558 41.6232C68.1558 40.6779 68.6111 40.2267 69.4999 40.3342C71.7385 40.5372 73.9321 41.0807 76.0037 41.9454C76.8762 42.3768 77.7231 42.8574 78.5401 43.3849C78.9678 43.6063 79.3185 43.95 79.5466 44.3714C79.7747 44.7928 79.8697 45.2725 79.8192 45.7481C79.8192 47.2305 79.8192 48.7343 79.8192 50.2167C79.7867 51.6037 80.0412 52.9825 80.5669 54.2683C81.0926 55.5541 81.8784 56.7196 82.8759 57.6931C84.2658 59.2002 86.0603 60.2835 88.0492 60.8162C90.0381 61.3489 92.139 61.3089 94.1057 60.7008C96.1109 60.1962 97.9238 59.1223 99.3218 57.611C100.72 56.0996 101.642 54.2166 101.975 52.1932C102.317 50.6644 102.328 49.0811 102.006 47.548C101.684 46.0149 101.038 44.5669 100.11 43.2997C99.1815 42.0325 97.9924 40.975 96.621 40.1972C95.2497 39.4193 93.7273 38.9388 92.1546 38.7873C91.6126 38.7873 91.049 38.7873 90.507 38.7873H69.7818C68.351 38.7873 68.0691 38.5295 68.2209 37.1331C68.4163 34.9129 68.9879 32.7413 69.9118 30.7094C70.3555 29.8544 70.8552 29.0291 71.4077 28.2388C71.6177 27.9031 71.9169 27.6313 72.2726 27.4531C72.6283 27.275 73.0266 27.1975 73.4239 27.2291H90.9839C94.2945 27.2124 97.5649 27.9473 100.544 29.3774C104.003 30.9167 107.012 33.3011 109.287 36.3072C111.562 39.3133 113.029 42.8427 113.552 46.5645C113.705 47.718 113.771 48.8815 113.747 50.0448C113.768 52.8612 114.863 55.5654 116.813 57.6143C118.763 59.6632 121.423 60.9048 124.259 61.0898C127.095 61.2748 129.896 60.3895 132.101 58.6116C134.305 56.8337 135.748 54.2951 136.141 51.5057C136.166 51.1696 136.166 50.8321 136.141 50.496C136.141 43.3347 136.141 36.2308 136.141 29.1841C136.141 27.6587 136.402 27.4009 137.897 27.5728C140.021 27.7807 142.098 28.3172 144.054 29.1626C144.898 29.5797 145.716 30.046 146.504 30.559C146.913 30.7834 147.249 31.119 147.472 31.5263C147.695 31.9337 147.795 32.3957 147.761 32.8578C147.761 34.1468 147.761 35.4144 147.761 36.7034C147.761 41.0861 147.761 45.4759 147.761 49.873C147.761 52.8301 148.947 55.6662 151.057 57.7573C153.167 59.8483 156.029 61.023 159.013 61.023C161.997 61.023 164.859 59.8483 166.969 57.7573C169.079 55.6662 170.264 52.8301 170.264 49.873C170.264 33.9177 170.264 17.9552 170.264 1.98563C170.264 1.72782 170.264 1.47002 170.264 1.21222C170.264 0.374348 170.676 -0.0338439 171.478 0.0306074C174.76 0.210943 177.933 1.25673 180.67 3.05982C181.053 3.31112 181.363 3.6577 181.569 4.06489C181.774 4.47208 181.868 4.9256 181.841 5.38007C181.841 11.8252 181.841 18.4422 181.841 24.9733C181.841 33.223 181.841 41.48 181.841 49.7441C181.867 52.5286 182.941 55.2034 184.853 57.244C186.765 59.2846 189.377 60.5439 192.177 60.7752C194.978 61.0064 197.764 60.1929 199.991 58.4941C202.217 56.7953 203.723 54.3336 204.214 51.5917C204.24 51.2556 204.24 50.918 204.214 50.5819C204.214 43.5066 204.214 36.4241 204.214 29.3345C204.214 29.1196 204.214 28.9263 204.214 28.7114C204.214 27.7447 204.626 27.3794 205.601 27.4654C208.211 27.693 210.752 28.4228 213.08 29.6138C213.721 29.9741 214.336 30.376 214.923 30.8169C215.185 30.9976 215.399 31.2387 215.546 31.5193C215.693 31.7999 215.77 32.1118 215.769 32.4281C215.769 32.7504 215.769 33.0512 215.769 33.3734C215.769 38.8947 215.769 44.3946 215.769 49.9159C215.75 52.3139 216.511 54.6541 217.941 56.5891C219.37 58.5241 221.391 59.9509 223.703 60.6578C224.762 60.9877 225.867 61.1543 226.977 61.1519H260.514C262.359 61.2381 264.2 60.8999 265.891 60.1637C267.889 59.3216 269.591 57.9104 270.78 56.109C271.968 54.3076 272.591 52.1971 272.568 50.0448C272.628 48.6103 272.57 47.1733 272.394 45.7481C271.964 43.1972 270.651 40.8745 268.68 39.1791C266.709 37.4838 264.203 36.5217 261.594 36.4581C258.985 36.3946 256.435 37.2335 254.383 38.8309C252.33 40.4282 250.903 42.6841 250.347 45.211C250.179 45.9733 250.092 46.751 250.087 47.5312C250.087 49.9088 250.087 52.2863 250.087 54.6638C250.109 55.1177 250.013 55.5697 249.808 55.9761C249.603 56.3826 249.296 56.7297 248.916 56.9841C247.141 58.221 245.125 59.0772 242.998 59.4977C241.946 59.7293 240.882 59.9015 239.811 60.0133C238.9 60.0133 238.51 59.7555 238.51 58.8747C238.51 54.7498 238.51 50.6249 238.51 46.5C238.664 41.3279 240.696 36.3846 244.233 32.5785C248.026 28.2361 253.393 25.5499 259.17 25.1022C264.795 24.5764 270.416 26.1506 274.931 29.5164C279.446 32.8823 282.531 37.7973 283.581 43.2989C283.832 44.7619 283.977 46.241 284.014 47.7246C284.118 49.6041 284.038 51.4891 283.776 53.3533C283.013 58.3511 280.583 62.9516 276.874 66.4211C273.165 69.8905 268.39 72.029 263.311 72.4954C262.162 72.6028 260.991 72.4954 259.842 72.4954H227.324C224.151 72.5532 221.001 71.9479 218.08 70.719C215.159 69.4901 212.532 67.665 210.371 65.3628L210.154 65.1479L210.024 65.0835ZM125.475 83.2802C124.548 82.2051 123.352 81.3902 122.007 80.917C120.62 80.4105 119.118 80.2988 117.671 80.5947C115.78 80.9434 114.076 81.9467 112.863 83.4257C111.649 84.9046 111.006 86.7628 111.048 88.6683C111.09 90.5738 111.813 92.4026 113.09 93.828C114.367 95.2534 116.113 96.1827 118.018 96.4498C120.138 96.7386 122.289 96.2049 124.022 94.9601C125.755 93.7151 126.936 91.8552 127.318 89.7683C127.598 91.2061 128.24 92.5508 129.182 93.6784C130.109 94.7542 131.306 95.5693 132.651 96.0416C134.038 96.5481 135.54 96.6598 136.987 96.3638C138.908 96.0464 140.649 95.0544 141.893 93.5692C143.136 92.0841 143.799 90.205 143.759 88.2755C143.72 86.3461 142.981 84.4951 141.678 83.0611C140.375 81.6272 138.594 80.7059 136.662 80.4658C134.541 80.177 132.39 80.7107 130.658 81.9556C128.925 83.2005 127.744 85.0604 127.361 87.1473C127.055 85.7015 126.384 84.3563 125.41 83.2373L125.475 83.2802ZM205.905 96.4283C207.829 96.1471 209.588 95.1894 210.859 93.7302C212.131 92.2709 212.83 90.4072 212.83 88.4793C212.83 86.5514 212.131 84.6877 210.859 83.2284C209.588 81.7691 207.829 80.8115 205.905 80.5303C203.795 80.215 201.644 80.7211 199.902 81.9425C198.16 83.164 196.963 85.0061 196.561 87.0829C196.135 85.0087 194.915 83.1786 193.157 81.9769C191.398 80.7752 189.238 80.2952 187.131 80.6377C185.206 80.9189 183.448 81.8766 182.176 83.3358C180.905 84.7951 180.205 86.6588 180.205 88.5867C180.205 90.5146 180.905 92.3783 182.176 93.8376C183.448 95.2969 185.206 96.2545 187.131 96.5357C189.241 96.851 191.392 96.3449 193.134 95.1235C194.875 93.902 196.073 92.0599 196.474 89.9832C196.91 92.0365 198.124 93.8456 199.867 95.037C201.61 96.2284 203.748 96.7111 205.84 96.3853L205.905 96.4283ZM260.102 16.2079C261.713 16.2121 263.289 15.7421 264.629 14.8576C265.97 13.973 267.015 12.7137 267.633 11.2394C268.25 9.7652 268.412 8.14245 268.097 6.57708C267.782 5.01171 267.005 3.57427 265.865 2.44713C264.724 1.32 263.272 0.553971 261.691 0.246237C260.111 -0.0614975 258.474 0.102933 256.988 0.718665C255.502 1.3344 254.234 2.37368 253.345 3.70466C252.456 5.03563 251.986 6.59832 251.994 8.19444C252.017 10.3088 252.878 12.3295 254.391 13.8207C255.903 15.3118 257.947 16.1538 260.081 16.1649L260.102 16.2079Z" fill="#E8E8E8"/>
</svg>
